<svg width="26" height="26" viewBox="0 0 26 26" fill="none" xmlns="http://www.w3.org/2000/svg">
<g clip-path="url(#clip0_16_123)">
<path d="M23.4627 0H2.13299C0.938491 0 0 0.938491 0 2.13299V23.4627C0 24.6572 0.938491 25.5957 2.13299 25.5957H11.9447H17.0638H23.4627C24.6572 25.5957 25.5957 24.6572 25.5957 23.4627V2.13299C25.5957 0.938491 24.6572 0 23.4627 0ZM12.7978 24.7424V16.2106H9.38506V12.7978H12.7978V9.81168C12.7978 7.3801 14.6749 5.33244 17.0638 5.11913H20.9031V8.5319H17.4903C16.7651 8.5319 16.2105 9.08646 16.2105 9.81168V12.7978H20.4765V16.2106H16.2106V24.7425H12.7978V24.7424ZM24.7424 23.4627C24.7424 24.1879 24.1879 24.7424 23.4627 24.7424H17.0638V17.0638H21.3297V11.9446H17.0638V9.81163C17.0638 9.55568 17.2344 9.38506 17.4903 9.38506H21.7563V4.26593H17.0211C14.1629 4.52188 11.9446 6.95347 11.9446 9.81163V11.9446H8.53185V17.0638H11.9446V24.7424H2.13299C1.40776 24.7424 0.853205 24.1879 0.853205 23.4627V2.13299C0.853205 1.40776 1.40776 0.853205 2.13299 0.853205H23.4627C24.1879 0.853205 24.7425 1.40776 24.7425 2.13299V23.4627H24.7424Z" fill="#252C41"/>
</g>
<defs>
<clipPath id="clip0_16_123">
<rect width="25.5957" height="25.5957" fill="white"/>
</clipPath>
</defs>
</svg>
