<svg width="26" height="26" viewBox="0 0 26 26" fill="none" xmlns="http://www.w3.org/2000/svg">
<g clip-path="url(#clip0_16_119)">
<path d="M18.6671 0H6.92851C3.10807 0 0 3.10807 0 6.92851V18.6673C0 22.4876 3.10807 25.5957 6.92851 25.5957H18.6673C22.4876 25.5957 25.5957 22.4876 25.5957 18.6673V6.92851C25.5957 3.10807 22.4876 0 18.6671 0V0ZM24.0951 18.6673C24.0951 21.6602 21.6602 24.0951 18.6671 24.0951H6.92851C3.93546 24.0951 1.50053 21.6602 1.50053 18.6673V6.92851C1.50053 3.93546 3.93546 1.50053 6.92851 1.50053H18.6673C21.6602 1.50053 24.0951 3.93546 24.0951 6.92851V18.6673Z" fill="#252C41"/>
<path d="M12.7978 5.79907C8.9387 5.79907 5.79919 8.93858 5.79919 12.7977C5.79919 16.6568 8.9387 19.7963 12.7978 19.7963C16.6569 19.7963 19.7964 16.6568 19.7964 12.7977C19.7964 8.93858 16.6569 5.79907 12.7978 5.79907ZM12.7978 18.2958C9.76629 18.2958 7.29972 15.8294 7.29972 12.7977C7.29972 9.76617 9.76629 7.2996 12.7978 7.2996C15.8295 7.2996 18.2959 9.76617 18.2959 12.7977C18.2959 15.8294 15.8295 18.2958 12.7978 18.2958Z" fill="#252C41"/>
<path d="M19.9638 3.31366C18.8234 3.31366 17.8958 4.24143 17.8958 5.38167C17.8958 6.5221 18.8234 7.44987 19.9638 7.44987C21.1043 7.44987 22.032 6.5221 22.032 5.38167C22.032 4.24124 21.1043 3.31366 19.9638 3.31366ZM19.9638 5.94915C19.651 5.94915 19.3963 5.69451 19.3963 5.38167C19.3963 5.06863 19.651 4.81419 19.9638 4.81419C20.2769 4.81419 20.5315 5.06863 20.5315 5.38167C20.5315 5.69451 20.2769 5.94915 19.9638 5.94915Z" fill="#252C41"/>
</g>
<defs>
<clipPath id="clip0_16_119">
<rect width="25.5957" height="25.5957" fill="white"/>
</clipPath>
</defs>
</svg>
