<svg width="26" height="24" viewBox="0 0 26 24" fill="none" xmlns="http://www.w3.org/2000/svg">
<path d="M0.441718 11.5698L6.70092 14.842C6.94301 14.9673 7.22883 14.9583 7.46026 14.8163L13.0316 11.4188L9.65935 14.5534C9.48765 14.7133 9.38953 14.9416 9.38953 15.1821V22.8172C9.38953 23.6227 10.3696 23.9616 10.8293 23.3217L13.535 19.5484L20.2261 23.5455C20.6953 23.8285 21.2968 23.5443 21.4056 22.9816L25.5788 1.16705C25.7036 0.51149 25.0818 -0.0232469 24.5038 0.220629L0.507841 10.0372C-0.136317 10.3012 -0.177909 11.2465 0.441718 11.5698ZM23.7231 2.34168L20.0554 21.5128L13.7152 17.7249C13.3697 17.5179 12.9249 17.6097 12.6796 17.9497L10.9893 20.3068V15.5591L20.1088 7.08383C20.8308 6.41373 20.0011 5.22232 19.1767 5.73021L7.0294 13.1382L2.77199 10.9131L23.7231 2.34168Z" fill="#252C41"/>
</svg>
